<?xml version="1.0" encoding="utf-8"?>
<!-- Generator: Adobe Illustrator 19.2.0, SVG Export Plug-In . SVG Version: 6.00 Build 0)  -->
<svg version="1.1" id="Layer_1" xmlns="http://www.w3.org/2000/svg" xmlns:xlink="http://www.w3.org/1999/xlink" x="0px" y="0px"
	 viewBox="0 0 43.7 43.7" style="enable-background:new 0 0 43.7 43.7;" xml:space="preserve">
<style type="text/css">
	.st0{fill:#E53826;}
	.st1{fill:#FBDC2C;}
</style>
<g>
	<g>
		<circle class="st0" cx="21.9" cy="21.9" r="21.9"/>
		<g>
			<g>
				<g>
					<polygon class="st1" points="9.8,8.6 11.2,13 15.7,13 12,15.7 13.5,20 9.8,17.4 6,20 7.5,15.7 3.8,13 8.3,13 					"/>
				</g>
				<polygon class="st1" points="21.7,6.4 21.6,7.9 23,8.4 21.5,8.8 21.4,10.3 20.6,9 19.2,9.4 20.1,8.2 19.3,7 20.7,7.5 				"/>
				<polygon class="st1" points="26.8,11.2 26.1,12.6 27.2,13.7 25.7,13.4 25,14.8 24.8,13.3 23.3,13 24.7,12.3 24.4,10.9 
					25.5,11.9 				"/>
				<polygon class="st1" points="25.3,17.4 25.7,18.8 27.3,18.8 26,19.7 26.5,21.1 25.3,20.2 24.1,21.1 24.5,19.7 23.3,18.8 
					24.8,18.8 				"/>
				<polygon class="st1" points="21.7,22 21.6,23.5 23,24 21.5,24.4 21.4,25.9 20.6,24.6 19.2,25 20.1,23.8 19.3,22.6 20.7,23.1 
									"/>
			</g>
		</g>
	</g>
</g>
</svg>
