<?xml version="1.0" encoding="utf-8"?>
<!-- Generator: Adobe Illustrator 19.2.0, SVG Export Plug-In . SVG Version: 6.00 Build 0)  -->
<svg version="1.1" id="Layer_1" xmlns="http://www.w3.org/2000/svg" xmlns:xlink="http://www.w3.org/1999/xlink" x="0px" y="0px"
	 viewBox="0 0 43.7 43.7" style="enable-background:new 0 0 43.7 43.7;" xml:space="preserve">
<style type="text/css">
	.st0{fill:#FFCE2A;}
	.st1{fill:#EE332B;}
</style>
<g>
	<g>
		<path class="st0" d="M21.9,43.7c8.8,0,16.4-5.2,19.9-12.8H2C5.4,38.5,13,43.7,21.9,43.7z"/>
		<path d="M21.9,0C13,0,5.4,5.2,2,12.8h39.7C38.3,5.2,30.7,0,21.9,0z"/>
		<path class="st1" d="M0,21.9c0,3.3,0.7,6.3,2,9.1h39.7c1.3-2.8,2-5.9,2-9.1c0-3.3-0.7-6.3-2-9.1H2C0.7,15.5,0,18.6,0,21.9z"/>
	</g>
</g>
</svg>
