<?xml version="1.0" encoding="utf-8"?>
<!-- Generator: Adobe Illustrator 19.2.0, SVG Export Plug-In . SVG Version: 6.00 Build 0)  -->
<svg version="1.1" id="Layer_1" xmlns="http://www.w3.org/2000/svg" xmlns:xlink="http://www.w3.org/1999/xlink" x="0px" y="0px"
	 viewBox="0 0 43.7 43.7" style="enable-background:new 0 0 43.7 43.7;" xml:space="preserve">
<style type="text/css">
	.st0{fill:#ED3430;}
	.st1{fill:#FFFFFF;}
</style>
<g>
	<circle class="st0" cx="21.9" cy="21.9" r="21.9"/>
	<g>
		<path class="st1" d="M18.6,29.8c-4.4,0-7.9-3.6-7.9-7.9c0-4.4,3.6-7.9,7.9-7.9c2.2,0,4.2,0.9,5.6,2.3c-1.8-2.5-4.7-4.2-8.1-4.2
			c-5.4,0-9.8,4.4-9.8,9.8c0,5.4,4.4,9.8,9.8,9.8c3.3,0,6.3-1.7,8.1-4.2C22.8,28.9,20.8,29.8,18.6,29.8z"/>
		<polygon class="st1" points="28.1,17.6 30,20.3 33,19.4 31.1,21.9 32.9,24.6 29.9,23.5 27.9,26.1 28,22.9 25,21.8 28.1,20.9 		"/>
	</g>
</g>
</svg>
