<?xml version="1.0" encoding="utf-8"?>
<!-- Generator: Adobe Illustrator 19.2.0, SVG Export Plug-In . SVG Version: 6.00 Build 0)  -->
<svg version="1.1" id="Layer_1" xmlns="http://www.w3.org/2000/svg" xmlns:xlink="http://www.w3.org/1999/xlink" x="0px" y="0px"
	 viewBox="0 0 43.7 43.7" style="enable-background:new 0 0 43.7 43.7;" xml:space="preserve">
<style type="text/css">
	.st0{fill:#243B74;}
	.st1{fill:#FFFFFF;}
	.st2{fill:#ED2924;}
</style>
<g>
	<g>
		<path class="st0" d="M1.7,13.5c-0.3,0.6-0.5,1.2-0.7,1.8h3.4L1.7,13.5z"/>
		<path class="st0" d="M42,30.3c0.3-0.6,0.5-1.2,0.7-1.9h-3.5L42,30.3z"/>
		<path class="st0" d="M6.3,37.3c2.5,2.5,5.5,4.4,9,5.5V31.3L6.3,37.3z"/>
		<path class="st0" d="M15.3,1c-3.4,1.1-6.5,3-9,5.5l9,6V1z"/>
		<path class="st0" d="M42.7,15.3c-0.2-0.6-0.4-1.2-0.7-1.8l-2.8,1.8H42.7z"/>
		<path class="st0" d="M28.4,42.7c3.4-1.1,6.5-3,9-5.5l-9-6V42.7z"/>
		<path class="st0" d="M1,28.4c0.2,0.6,0.4,1.3,0.7,1.9l2.8-1.9H1z"/>
		<path class="st0" d="M37.4,6.5c-2.5-2.5-5.5-4.4-9-5.5v11.5L37.4,6.5z"/>
		<path class="st1" d="M43.4,25.7H25.7v17.7c0.9-0.2,1.8-0.4,2.7-0.7V31.3l9,6c1-1,1.9-2.1,2.7-3.3l-8.3-5.5H37l4.5,3
			c0.2-0.4,0.3-0.7,0.5-1.1l-2.8-1.9h3.5C43,27.5,43.2,26.6,43.4,25.7z"/>
		<path class="st1" d="M15.3,1v11.5l-9-6c-1,1-1.9,2.1-2.7,3.3l8.4,5.6H6.8l-4.6-3.1C2,12.6,1.8,13,1.7,13.5l2.8,1.8H1
			c-0.3,0.9-0.5,1.8-0.7,2.7H18V0.3C17.1,0.5,16.2,0.7,15.3,1z"/>
		<path class="st1" d="M0.3,25.7c0.2,0.9,0.4,1.8,0.7,2.7h3.5l-2.8,1.9c0.5,1.3,1.2,2.5,1.9,3.6l8.3-5.5h3.4v1.2l-9.9,6.6
			c0.3,0.4,0.6,0.7,1,1.1l9-6v11.4c0.9,0.3,1.8,0.5,2.7,0.7V25.7H0.3z"/>
		<path class="st1" d="M42.7,15.3h-3.4l2.8-1.8c-0.5-1.3-1.2-2.6-2-3.7l-8.4,5.6h-3.2V14l9.9-6.6c-0.3-0.3-0.6-0.6-0.9-1l-9,6V1
			c-0.9-0.3-1.8-0.5-2.7-0.7V18h17.7C43.2,17.1,43,16.2,42.7,15.3z"/>
		<path class="st2" d="M43.4,18H25.7V0.3C24.4,0.1,23.2,0,21.9,0c-1.3,0-2.6,0.1-3.8,0.3V18H0.3C0.1,19.3,0,20.6,0,21.9
			c0,1.3,0.1,2.6,0.3,3.8H18v17.7c1.2,0.2,2.5,0.3,3.8,0.3c1.3,0,2.6-0.1,3.8-0.3V25.7h17.7c0.2-1.2,0.3-2.5,0.3-3.8
			C43.7,20.6,43.6,19.3,43.4,18z"/>
		<path class="st2" d="M31.8,28.4l8.3,5.5c0.5-0.8,1-1.6,1.4-2.5l-4.5-3H31.8z"/>
		<path class="st2" d="M28.4,15.3h3.2L40,9.7c-0.5-0.8-1.1-1.6-1.8-2.3L28.4,14V15.3z"/>
		<path class="st2" d="M15.3,28.4h-3.4l-8.3,5.5c0.5,0.8,1.1,1.6,1.7,2.3l9.9-6.6V28.4z"/>
		<path class="st2" d="M12,15.3L3.7,9.7c-0.5,0.8-1,1.6-1.4,2.5l4.6,3.1H12z"/>
	</g>
</g>
</svg>
