<?xml version="1.0" encoding="utf-8"?>
<!-- Generator: Adobe Illustrator 19.2.0, SVG Export Plug-In . SVG Version: 6.00 Build 0)  -->
<svg version="1.1" id="Layer_1" xmlns="http://www.w3.org/2000/svg" xmlns:xlink="http://www.w3.org/1999/xlink" x="0px" y="0px"
	 viewBox="0 0 43.7 43.7" style="enable-background:new 0 0 43.7 43.7;" xml:space="preserve">
<style type="text/css">
	.st0{fill:#EE332B;}
	.st1{fill:#FFFFFF;}
</style>
<g>
	<path class="st0" d="M0,21.9C0,29,3.4,35.4,8.7,39.3v-35C3.4,8.4,0,14.7,0,21.9z"/>
	<path class="st0" d="M43.7,21.9c0-7.2-3.4-13.5-8.7-17.5v35C40.3,35.4,43.7,29,43.7,21.9z"/>
	<path class="st1" d="M8.7,4.4v35c3.7,2.7,8.2,4.4,13.1,4.4c4.9,0,9.5-1.6,13.1-4.4v-35C31.3,1.6,26.8,0,21.9,0
		C16.9,0,12.4,1.6,8.7,4.4z"/>
	<path class="st0" d="M21.9,34.6h0.4l-0.1-6c0-0.2,0.3-0.4,0.4-0.4c1.9,0.2,3.5,0.4,5.4,0.7l-0.5-1.6c-0.1-0.3,0-0.6,0.2-0.8
		l5.4-4.6l-1.1-0.6c-0.5-0.2-0.4-0.5-0.2-1.2l0.8-3.1l-3.1,0.7c-0.3,0-0.5-0.2-0.6-0.3l-0.4-1.5l-2.5,2.9c-0.4,0.5-1.1,0.5-0.8-0.6
		l1.1-5.9l-1.4,0.8c-0.4,0.2-0.8,0.3-1-0.1l-2-3.8l-2,3.8c-0.2,0.4-0.6,0.4-1,0.1l-1.4-0.8l1.1,5.9c0.2,1.1-0.5,1.1-0.8,0.6
		l-2.5-2.9l-0.4,1.5c0,0.2-0.3,0.4-0.6,0.3L11,17.1l0.8,3.1c0.2,0.7,0.3,1-0.2,1.2l-1.1,0.6l5.4,4.6c0.2,0.2,0.3,0.5,0.2,0.8
		l-0.5,1.6c1.9-0.2,3.5-0.4,5.4-0.7c0.2,0,0.4,0.2,0.4,0.4l-0.1,6H21.9z"/>
</g>
</svg>
