<?xml version="1.0" encoding="utf-8"?>
<!-- Generator: Adobe Illustrator 19.2.0, SVG Export Plug-In . SVG Version: 6.00 Build 0)  -->
<svg version="1.1" id="Layer_1" xmlns="http://www.w3.org/2000/svg" xmlns:xlink="http://www.w3.org/1999/xlink" x="0px" y="0px"
	 viewBox="0 0 43.7 43.7" style="enable-background:new 0 0 43.7 43.7;" xml:space="preserve">
<style type="text/css">
	.st0{fill:#FFFFFF;}
	.st1{fill:#3553A4;}
</style>
<g>
	<polygon class="st0" points="26.5,20.2 27.4,18.7 25.6,18.7 	"/>
	<polygon class="st0" points="25.6,25 27.4,25 26.5,23.5 	"/>
	<polygon class="st0" points="20,18.7 18.2,21.9 20,25 23.7,25 25.5,21.9 23.7,18.7 	"/>
	<path class="st0" d="M8.8,39.4c3.6,2.7,8.1,4.3,13,4.3c4.9,0,9.4-1.6,13-4.3H8.8z"/>
	<path class="st0" d="M43.7,21.9c0-4-1.1-7.8-3-11H3c-1.9,3.2-3,7-3,11s1.1,7.8,3,11h37.8C42.6,29.6,43.7,25.9,43.7,21.9z
		 M21.9,31.5l-2.8-4.8h-4.1h-1.4l2.8-4.8l-2.1-3.6l-0.7-1.2h5.5l2.8-4.8l2.8,4.8h5.5l-2.8,4.8l2.8,4.8h-5.5L21.9,31.5z"/>
	<polygon class="st0" points="21.9,15.5 21,17.1 22.8,17.1 	"/>
	<path class="st0" d="M21.9,0c-4.9,0-9.4,1.6-13,4.3h26C31.2,1.6,26.7,0,21.9,0z"/>
	<polygon class="st0" points="17.2,20.2 18.1,18.7 16.4,18.7 	"/>
	<polygon class="st0" points="16.4,25 18.1,25 17.2,23.5 	"/>
	<polygon class="st0" points="21.9,28.2 22.8,26.7 21,26.7 	"/>
	<path class="st1" d="M34.9,4.3h-26c-2.4,1.8-4.4,4-5.9,6.6h37.8C39.2,8.3,37.2,6.1,34.9,4.3z"/>
	<path class="st1" d="M40.7,32.9H3c1.5,2.6,3.5,4.8,5.9,6.6h26C37.2,37.7,39.2,35.4,40.7,32.9z"/>
	<path class="st1" d="M27.4,21.9l2.8-4.8h-5.5l-2.8-4.8l-2.8,4.8h-5.5l0.7,1.2l2.1,3.6l-2.8,4.8h1.4h4.1l2.8,4.8l2.8-4.8h5.5
		L27.4,21.9z M21.9,15.5l0.9,1.6H21L21.9,15.5z M16.4,25l0.9-1.5l0.9,1.5H16.4z M17.2,20.2l-0.9-1.5h1.7L17.2,20.2z M21.9,28.2
		L21,26.7h1.8L21.9,28.2z M23.7,25H20l-1.8-3.2l1.8-3.2h3.7l1.8,3.2L23.7,25z M25.6,25l0.9-1.5l0.9,1.5H25.6z M26.5,20.2l-0.9-1.5
		h1.8L26.5,20.2z"/>
</g>
</svg>
