<?xml version="1.0" encoding="utf-8"?>
<!-- Generator: Adobe Illustrator 19.2.0, SVG Export Plug-In . SVG Version: 6.00 Build 0)  -->
<svg version="1.1" id="Layer_1" xmlns="http://www.w3.org/2000/svg" xmlns:xlink="http://www.w3.org/1999/xlink" x="0px" y="0px"
	 viewBox="0 0 43.7 43.7" style="enable-background:new 0 0 43.7 43.7;" xml:space="preserve">
<style type="text/css">
	.st0{fill:#FFFFFF;}
	.st1{fill:#EE3E51;}
</style>
<path class="st0" d="M21.9,43.7c12.1,0,21.9-9.8,21.9-21.9H0C0,33.9,9.8,43.7,21.9,43.7z"/>
<path class="st1" d="M21.9,0C9.8,0,0,9.8,0,21.9h43.7C43.7,9.8,33.9,0,21.9,0z"/>
<g>
	<path class="st0" d="M8.5,12.9c0-2.7,1.6-5,3.8-6c-0.4-0.1-0.9-0.2-1.4-0.2c-3.4,0-6.2,2.8-6.2,6.2c0,3.4,2.8,6.2,6.2,6.2
		c0.5,0,0.9-0.1,1.4-0.2C10.1,17.8,8.5,15.5,8.5,12.9z"/>
	<g>
		<polygon class="st0" points="15.3,7.9 15.6,9 16.8,9 15.9,9.7 16.2,10.8 15.3,10.1 14.3,10.8 14.7,9.7 13.8,9 14.9,9 		"/>
		<polygon class="st0" points="18.7,10.4 19.1,11.6 20.2,11.6 19.3,12.2 19.7,13.3 18.7,12.7 17.8,13.3 18.1,12.2 17.2,11.6 
			18.4,11.6 		"/>
		<polygon class="st0" points="11.8,10.4 12.1,11.6 13.3,11.6 12.4,12.2 12.7,13.3 11.8,12.7 10.8,13.3 11.2,12.2 10.3,11.6 
			11.4,11.6 		"/>
		<polygon class="st0" points="17.4,14.5 17.8,15.7 18.9,15.7 18,16.3 18.3,17.4 17.4,16.8 16.5,17.4 16.8,16.3 15.9,15.7 17,15.7 
					"/>
		<polygon class="st0" points="13.1,14.5 13.5,15.7 14.6,15.7 13.7,16.3 14.1,17.4 13.1,16.8 12.2,17.4 12.5,16.3 11.6,15.7 
			12.8,15.7 		"/>
	</g>
</g>
</svg>
