<?xml version="1.0" encoding="utf-8"?>
<!-- Generator: Adobe Illustrator 19.2.0, SVG Export Plug-In . SVG Version: 6.00 Build 0)  -->
<svg version="1.1" id="Layer_1" xmlns="http://www.w3.org/2000/svg" xmlns:xlink="http://www.w3.org/1999/xlink" x="0px" y="0px"
	 viewBox="0 0 43.7 43.7" style="enable-background:new 0 0 43.7 43.7;" xml:space="preserve">
<style type="text/css">
	.st0{fill:#FFFFFF;}
	.st1{fill:#E42337;}
	.st2{fill:#2B2A6E;}
</style>
<g>
	<circle class="st0" cx="21.9" cy="21.9" r="21.9"/>
	<g>
		<g>
			<path class="st0" d="M0.6,26.9h42.5c0.3-1.1,0.4-2.2,0.5-3.4H0.1C0.2,24.7,0.3,25.8,0.6,26.9z"/>
			<path class="st0" d="M3.4,33.6h36.8c0.7-1.1,1.3-2.2,1.8-3.4H1.7C2.2,31.4,2.8,32.6,3.4,33.6z"/>
			<path class="st0" d="M10.2,40.4h23.3c1.5-1,2.9-2.1,4.1-3.4H6.1C7.3,38.3,8.7,39.4,10.2,40.4z"/>
			<path class="st0" d="M33.5,3.4H10.2C8.7,4.3,7.3,5.4,6.1,6.7h31.5C36.4,5.4,35,4.3,33.5,3.4z"/>
			<g>
				<path class="st1" d="M1.7,30.3H42c0.4-1.1,0.8-2.2,1.1-3.4H0.6C0.9,28.1,1.2,29.2,1.7,30.3z"/>
				<path class="st1" d="M6.1,37h31.5c1-1,1.9-2.2,2.7-3.4H3.4C4.2,34.8,5.1,36,6.1,37z"/>
				<path class="st1" d="M21.9,43.7c4.3,0,8.3-1.2,11.6-3.4H10.2C13.6,42.5,17.6,43.7,21.9,43.7z"/>
				<path class="st1" d="M0.6,16.8h42.5c-0.3-1.2-0.6-2.3-1.1-3.4H1.7C1.2,14.5,0.9,15.7,0.6,16.8z"/>
				<path class="st1" d="M0,21.9c0,0.6,0,1.1,0.1,1.7h43.6c0-0.6,0.1-1.1,0.1-1.7c0-0.6,0-1.1-0.1-1.7H0.1C0,20.7,0,21.3,0,21.9z"/>
				<path class="st1" d="M6.1,6.7c-1,1-1.9,2.2-2.7,3.4h36.8c-0.8-1.2-1.7-2.3-2.7-3.4H6.1z"/>
				<path class="st1" d="M21.9,0c-4.3,0-8.3,1.2-11.6,3.4h23.3C30.1,1.2,26.1,0,21.9,0z"/>
			</g>
			<path class="st0" d="M0.1,20.2h43.6c-0.1-1.2-0.3-2.3-0.5-3.4H0.6C0.3,17.9,0.2,19,0.1,20.2z"/>
			<path class="st0" d="M1.7,13.5H42c-0.5-1.2-1.1-2.3-1.8-3.4H3.4C2.8,11.2,2.2,12.3,1.7,13.5z"/>
		</g>
		<g>
			<path class="st2" d="M21.8,0C9.8,0,0,9.8,0,21.9c0,0.6,0,1.1,0.1,1.7h21.8V0z"/>
			<g>
				<path class="st0" d="M1.3,14.3c0,0.1-0.1,0.2-0.1,0.2h0L1.3,14.3z"/>
				<path class="st0" d="M1.1,15c-0.1,0.2-0.1,0.5-0.2,0.7L1.1,15L1.1,15z"/>
				<polygon class="st0" points="2.2,22.3 1.5,21.8 0.9,22.3 1.1,21.5 0.5,21.1 1.3,21.1 1.5,20.3 1.7,21.1 2.5,21.1 1.9,21.5 				
					"/>
				<polygon class="st0" points="5.1,19 4.4,18.6 3.8,19 4,18.3 3.4,17.8 4.2,17.8 4.4,17 4.7,17.8 5.5,17.8 4.8,18.3 				"/>
				<polygon class="st0" points="4.9,11.6 5.1,12.4 4.5,11.9 3.8,12.4 4.1,11.6 3.4,11.1 4.2,11.1 4.5,10.4 4.7,11.1 5.5,11.1 				
					"/>
				<polygon class="st0" points="8.1,22.3 7.5,21.8 6.8,22.3 7.1,21.5 6.4,21.1 7.2,21.1 7.5,20.3 7.7,21.1 8.5,21.1 7.9,21.5 				
					"/>
				<polygon class="st0" points="8.2,14.8 7.9,15 8.1,15.8 7.5,15.3 6.8,15.8 7.1,15 6.8,14.8 6.4,14.6 7.2,14.6 7.5,13.8 7.7,14.6 
					8.5,14.6 				"/>
				<polygon class="st0" points="7.9,8.2 8.1,9 7.5,8.5 6.8,9 7.1,8.2 6.4,7.7 7.2,7.7 7.5,7 7.7,7.7 8.5,7.7 				"/>
				<polygon class="st0" points="11.1,19.3 10.4,18.8 9.8,19.3 10,18.5 9.4,18 10.2,18 10.4,17.3 10.7,18 11.5,18 10.8,18.5 				"/>
				<polygon class="st0" points="10.9,11.8 11.1,12.6 10.5,12.1 9.8,12.6 10.1,11.8 9.4,11.4 10.2,11.4 10.5,10.6 10.7,11.4 
					11.5,11.4 				"/>
				<polygon class="st0" points="10.9,5.1 11.2,5.9 10.5,5.4 9.9,5.9 10.1,5.1 9.5,4.6 10.3,4.6 10.5,3.9 10.8,4.6 11.6,4.6 				"/>
				<polygon class="st0" points="14.1,22.3 13.5,21.8 12.8,22.3 13.1,21.5 12.4,21.1 13.2,21.1 13.5,20.3 13.7,21.1 14.5,21.1 
					13.9,21.5 				"/>
				<polygon class="st0" points="14.1,14.8 13.9,15 14.1,15.8 13.5,15.3 12.8,15.8 13.1,15 12.8,14.8 12.4,14.6 13.2,14.6 
					13.5,13.8 13.7,14.6 14.5,14.6 				"/>
				<polygon class="st0" points="13.9,8.2 14.1,9 13.5,8.5 12.8,9 13.1,8.2 12.4,7.7 13.2,7.7 13.5,7 13.7,7.7 14.5,7.7 				"/>
				<polygon class="st0" points="17,19.3 16.4,18.8 15.7,19.3 16,18.5 15.3,18 16.1,18 16.4,17.3 16.6,18 17.4,18 16.8,18.5 				"/>
				<polygon class="st0" points="16.8,11.8 17.1,12.6 16.4,12.1 15.8,12.6 16,11.8 15.4,11.4 16.2,11.4 16.4,10.6 16.7,11.4 
					17.5,11.4 				"/>
				<polygon class="st0" points="16.9,5.1 17.2,5.9 16.5,5.4 15.9,5.9 16.1,5.1 15.5,4.6 16.3,4.6 16.5,3.9 16.8,4.6 17.5,4.6 				
					"/>
				<polygon class="st0" points="20.1,22.3 19.4,21.8 18.8,22.3 19,21.5 18.4,21.1 19.2,21.1 19.4,20.3 19.7,21.1 20.5,21.1 
					19.8,21.5 				"/>
				<polygon class="st0" points="20.1,14.8 19.8,15 20.1,15.8 19.4,15.3 18.8,15.8 19,15 18.7,14.8 18.4,14.6 19.2,14.6 19.4,13.8 
					19.7,14.6 20.5,14.6 				"/>
				<polygon class="st0" points="19.8,8.2 20.1,9 19.4,8.5 18.8,9 19,8.2 18.4,7.7 19.2,7.7 19.4,7 19.7,7.7 20.5,7.7 				"/>
				<polygon class="st0" points="19.8,1.5 20.1,2.3 19.4,1.8 18.8,2.3 19,1.5 18.4,1.1 19.2,1.1 19.4,0.3 19.7,1.1 20.5,1.1 				"/>
				<path class="st0" d="M13.5,1.8l0.6,0.5l-0.2-0.8l0.1-0.1c-0.3,0.1-0.7,0.3-1,0.4l-0.1,0.4L13.5,1.8z"/>
				<polygon class="st0" points="13.5,7 13.2,7.7 12.4,7.7 13.1,8.2 12.8,9 13.5,8.5 14.1,9 13.9,8.2 14.5,7.7 13.7,7.7 				"/>
				<polygon class="st0" points="13.5,13.8 13.2,14.6 12.4,14.6 12.8,14.8 13.1,15 12.8,15.8 13.5,15.3 14.1,15.8 13.9,15 
					14.1,14.8 14.5,14.6 13.7,14.6 				"/>
				<polygon class="st0" points="13.7,21.1 13.5,20.3 13.2,21.1 12.4,21.1 13.1,21.5 12.8,22.3 13.5,21.8 14.1,22.3 13.9,21.5 
					14.5,21.1 				"/>
				<polygon class="st0" points="7.5,7 7.2,7.7 6.4,7.7 7.1,8.2 6.8,9 7.5,8.5 8.1,9 7.9,8.2 8.5,7.7 7.7,7.7 				"/>
				<polygon class="st0" points="7.5,13.8 7.2,14.6 6.4,14.6 6.8,14.8 7.1,15 6.8,15.8 7.5,15.3 8.1,15.8 7.9,15 8.2,14.8 8.5,14.6 
					7.7,14.6 				"/>
				<polygon class="st0" points="7.7,21.1 7.5,20.3 7.2,21.1 6.4,21.1 7.1,21.5 6.8,22.3 7.5,21.8 8.1,22.3 7.9,21.5 8.5,21.1 				
					"/>
				<path class="st0" d="M0.9,15.8L0.9,15.8C0.9,15.8,0.9,15.8,0.9,15.8L0.9,15.8z"/>
				<path class="st0" d="M1.5,13.8l-0.2,0.5C1.4,14.2,1.5,14,1.5,13.8L1.5,13.8z"/>
				<path class="st0" d="M2.2,15.8L1.9,15l0.3-0.2l0.4-0.3H1.7l-0.2-0.7c-0.1,0.2-0.1,0.3-0.2,0.5l-0.1,0.2h0
					c-0.1,0.2-0.1,0.3-0.2,0.5l0,0l-0.2,0.7c0,0,0,0,0,0.1l0.6-0.5L2.2,15.8z"/>
				<polygon class="st0" points="1.7,21.1 1.5,20.3 1.3,21.1 0.5,21.1 1.1,21.5 0.9,22.3 1.5,21.8 2.2,22.3 1.9,21.5 2.5,21.1 				
					"/>
				<polygon class="st0" points="16.4,10.6 16.2,11.4 15.4,11.4 16,11.8 15.8,12.6 16.4,12.1 17.1,12.6 16.8,11.8 17.5,11.4 
					16.7,11.4 				"/>
				<polygon class="st0" points="16.6,18 16.4,17.3 16.1,18 15.3,18 16,18.5 15.7,19.3 16.4,18.8 17,19.3 16.8,18.5 17.4,18 				"/>
				<polygon class="st0" points="10.5,10.6 10.2,11.4 9.4,11.4 10.1,11.8 9.8,12.6 10.5,12.1 11.1,12.6 10.9,11.8 11.5,11.4 
					10.7,11.4 				"/>
				<polygon class="st0" points="10.7,18 10.4,17.3 10.2,18 9.4,18 10,18.5 9.8,19.3 10.4,18.8 11.1,19.3 10.8,18.5 11.5,18 				"/>
				<polygon class="st0" points="4.5,10.4 4.2,11.1 3.4,11.1 4.1,11.6 3.8,12.4 4.5,11.9 5.1,12.4 4.9,11.6 5.5,11.1 4.7,11.1 				
					"/>
				<polygon class="st0" points="4.7,17.8 4.4,17 4.2,17.8 3.4,17.8 4,18.3 3.8,19 4.4,18.6 5.1,19 4.8,18.3 5.5,17.8 				"/>
				<polygon class="st0" points="19.4,7 19.2,7.7 18.4,7.7 19,8.2 18.8,9 19.4,8.5 20.1,9 19.8,8.2 20.5,7.7 19.7,7.7 				"/>
				<polygon class="st0" points="10.5,3.9 10.3,4.6 9.5,4.6 10.1,5.1 9.9,5.9 10.5,5.4 11.2,5.9 10.9,5.1 11.6,4.6 10.8,4.6 				"/>
				<polygon class="st0" points="16.5,3.9 16.3,4.6 15.5,4.6 16.1,5.1 15.9,5.9 16.5,5.4 17.2,5.9 16.9,5.1 17.5,4.6 16.8,4.6 				
					"/>
				<polygon class="st0" points="19.4,0.3 19.2,1.1 18.4,1.1 19,1.5 18.8,2.3 19.4,1.8 20.1,2.3 19.8,1.5 20.5,1.1 19.7,1.1 				"/>
				<polygon class="st0" points="19.4,13.8 19.2,14.6 18.4,14.6 18.7,14.8 19,15 18.8,15.8 19.4,15.3 20.1,15.8 19.8,15 20.1,14.8 
					20.5,14.6 19.7,14.6 				"/>
				<polygon class="st0" points="19.7,21.1 19.4,20.3 19.2,21.1 18.4,21.1 19,21.5 18.8,22.3 19.4,21.8 20.1,22.3 19.8,21.5 
					20.5,21.1 				"/>
			</g>
		</g>
	</g>
</g>
</svg>
